<svg xmlns="http://www.w3.org/2000/svg" xmlns:xlink="http://www.w3.org/1999/xlink" width="93.416" height="97.799" viewBox="0 0 93.416 97.799">
  <defs>
    <clipPath id="clip-path">
      <rect id="Rectangle_108" data-name="Rectangle 108" width="93.416" height="97.799" fill="#f5f5f5"/>
    </clipPath>
  </defs>
  <g id="Groupe_79" data-name="Groupe 79" clip-path="url(#clip-path)">
    <path id="Tracé_129" data-name="Tracé 129" d="M43.278,86.812c-.335-.947-2.98-3.167-1.5-1.32-.372-.232-.652.273-.284-.169.075-1.29-5.027-3.323-3.243-1.535-.343-.045-.818-.282-.909-.117.593-.084.159-1.909,1.643-2.809,1.28.359.217-.918,1.417-.867,1.108.2.489-1.026,1.142-1.158,2.668-1.354,1.521-5.311,2.939-7.3.434-1.318-1.112-6.308-1.442-4.2-.215,0,.305-.237.3-.607-.161-7.695-8.28-10.634-10.275-2.952,11.446-9.914,10.283,18.9-10.9,11.171-1.11-.947,4.79-11.584,3.221-10.679.59-1.87,5.044-6.566,4.244-8.056.288-.265,1.332-.842.723-1.667,4.486-3.876.79-8.83,11.051-7.784.585-.028.794-.493.907.452,3.448,5.414,4.767,10.208,9.776,20.021-.322-.8.733.534-.1.189.647,2.348,1.279,2.53,1.757,2.391-1.191.478.207,1.159.839.948-.675.077-1.593.23-.424.576-.333.138.01,1.265.442,1.2-.311-.047.387,2.308.71,1.3-.485.089.691,3.329.747,1.675.319.281.361.746.141.126-.785,1.414,1.194,3.643,1.446,5.36-.126.251.057.7-.213.771-1.337.846.91.907.209,1.137-3.84-1.552-9.092,5.733-6.87,8.385a1.177,1.177,0,0,0-.027.733c-1.393-2.137,1.787,7.336,6.112,5.539a2.257,2.257,0,0,1,.413-.552c-1.328,1.8,4.638-1.187,2.646-1.539.353-.25.443-.127.557-.511-.195,1.192.6-.012.522-.471.591-1-.636-4.552-.229-1.641-.547-1.068.318-1.68-.736-1.95-.435-1.032-2.038-1.178-.6.212-1.126-1.924-2.263.711-1.744,1.857,1.362-2.117,3.192.6,1.308,1.859.477-.029-.171,1.032-.2.434-.649.294-1.324.389-.677.681-.328.264-.2-.2-.442-.511.228-.59-.167-.463-.464-.361-.672-1.433-.924-.217-1.516-.406.757.075.7-1.547.142-.922a.349.349,0,0,0-.214-.629c-2.6-8.539,7.2-5.918,11.082-6.992-2.866.9,3.465-.188,3.308.062.553.264,1.747.761.979-.249,1.079-.45,2.449.149,3.952-.223.2.487-.788,1.081.251.978,2.068-.942,2.778.213,2.892-.906,1.775,1.268,3.47-.308,5.918.1-.077.449-.565,1.044.28.727,2.761.193,1.788-.441.229-.727,2.208-.262,4.936.287,5.92-.362,1.9-.725,4.842.914,1.377-1.371C74.658,59.149,61.4,24.886,47.663,0,36.143,18.318,15.843,71.385,1.639,85.831c-1.064-.6-2.608,1.366-.821.782.264.168.351-.08.494-.163-.4.316.6.169.8,0,.559.593.954-.2,1.638.1,3.721-.434,10.734.6,17.584-.445-.1.62,3.24.212,4.9.353,2.357-.715,2.044.8,4.142-.979q-2.007.279,0,0c.229-.124-.14-.144-.365-.276l1.5.112c-.428.407,2.067.792,1.547.391,3.182.812,3.341,2.4,5.2,2.1-1.891-.486.435,2.409-.193,1.847.092.591-.894.177-.477.6a.983.983,0,0,1,.255.2c-1.247-.5,1.206-.509-.368-1.244-.664-.282.665.87-.513.281-3.566-2.653-5.432,7.276.5,7.747,1.19.493,4.644-.822,1.847-.646-.463-.465.712.052.869-.788-.177.741-.274,1.036.45.032,0,.509-.621.661-.071.963.464-.511,5.68-4.221,2.807-9.787Zm-11.766-1.5c.149.029.3.061.446.094a2.644,2.644,0,0,1-.446-.094M46.8,22.205c.456.13.5-.247.91-.234-.087.048-.32.49.089.5-.12-.232.044-.131.226-.3-.509.189.437,1.568.48.883,2.235,7.89,44.364,74.239,15.4,46.3.3-.226-.142-1.3-.112-.673-.78-.461-.966-1.851-1.818-2.128-1.094-4.815-5.757-13.628-8.754-17.392,1.217.547-1.273-3.268-1.635-4.252-.194-2.234-1.794-.14-.607-1.576-.05-.283-.062-.437-.335-.21,0,0,.278-.4.488-.363s-.541-1.115-.677-1.019c.262-.184.1-.4-.768-.272-1.914-.016-.779-.216-1.795.077.618-.3.027-.46-.239-.2-.636.309-12.407-.671-10.7.734a7.038,7.038,0,0,0-.828-.06c1.4-.761-.93-.758.416-.65a1.292,1.292,0,0,1,.155-.577c.036.808,1.765-2.449.782-1.2.553-.737.936-1.193-.256-.424-.139.419-.437,0-.183-.285,4.294-3.368,4.128-7.959,9.76-16.681" transform="translate(0)" fill="#f5f5f5"/>
  </g>
</svg>
