<svg width="104" height="55" viewBox="0 0 104 55" fill="none" xmlns="http://www.w3.org/2000/svg">
<path d="M20.65 18.7375H20.8862V19H12.5125V18.7375H12.7487C13.1337 18.7375 13.4137 18.6237 13.5887 18.3962C13.7812 18.1512 13.8775 17.9237 13.8775 17.7137C13.8775 17.5037 13.8337 17.2937 13.7462 17.0837L12.46 13.855H6.31747L4.95247 17.0837C4.86497 17.3112 4.82122 17.53 4.82122 17.74C4.82122 17.9325 4.90872 18.1512 5.08372 18.3962C5.27622 18.6237 5.57372 18.7375 5.97622 18.7375H6.18622V19H0.568716V18.7375H0.804966C1.20747 18.7375 1.60997 18.615 2.01247 18.37C2.41497 18.125 2.74747 17.7575 3.00997 17.2675L9.07372 3.53875C9.89622 1.80625 10.3337 0.659999 10.3862 0.0999992H10.6225L18.4187 17.215C18.6812 17.7225 19.0137 18.1075 19.4162 18.37C19.8187 18.615 20.23 18.7375 20.65 18.7375ZM6.76372 12.7525H12.0137L9.46747 6.295L6.76372 12.7525ZM21.1402 18.805C21.4782 18.805 21.7642 18.688 21.9982 18.454C22.2452 18.207 22.3752 17.9145 22.3882 17.5765V6.715C22.3492 6.26 22.1347 5.922 21.7447 5.701C21.5497 5.597 21.3482 5.545 21.1402 5.545H20.8867V5.35H28.3552C28.7582 5.35 29.2002 5.311 29.6812 5.233C30.1622 5.155 30.5002 5.077 30.6952 4.999V8.4115H30.5002V8.1775C30.5002 7.5925 30.3247 7.1245 29.9737 6.7735C29.6357 6.4095 29.1742 6.2145 28.5892 6.1885H25.3132V11.863H27.8872C28.3682 11.85 28.7647 11.6875 29.0767 11.3755C29.3887 11.0505 29.5447 10.654 29.5447 10.186V10.0105H29.7397V14.515H29.5447V14.359C29.5447 13.709 29.2847 13.228 28.7647 12.916C28.5047 12.773 28.2187 12.695 27.9067 12.682H25.3132V18.1615H27.8677C28.8167 18.1615 29.6097 17.8885 30.2467 17.3425C30.8967 16.7965 31.3777 16.023 31.6897 15.022H31.8847L30.9877 19H20.8867V18.805H21.1402ZM40.345 6.1495V17.596C40.358 17.934 40.4815 18.22 40.7155 18.454C40.9625 18.688 41.255 18.805 41.593 18.805H41.827L41.8465 19H35.9185V18.805H36.172C36.497 18.805 36.7765 18.688 37.0105 18.454C37.2575 18.22 37.394 17.9405 37.42 17.6155V6.1495H34.7875C34.1895 6.1625 33.715 6.351 33.364 6.715C33.013 7.079 32.8375 7.5535 32.8375 8.1385V8.3725H32.6425V4.9795C32.8245 5.0575 33.1495 5.1355 33.6175 5.2135C34.0985 5.2915 34.5405 5.3305 34.9435 5.3305H42.802C43.439 5.3175 43.959 5.2655 44.362 5.1745C44.765 5.0835 45.012 5.0185 45.103 4.9795V8.3725H44.908V8.1385C44.908 7.5535 44.7325 7.079 44.3815 6.715C44.0305 6.351 43.556 6.1625 42.958 6.1495H40.345ZM46.4293 18.805C46.7673 18.805 47.0533 18.688 47.2873 18.454C47.5343 18.207 47.6643 17.9145 47.6773 17.5765V6.715C47.6383 6.26 47.4238 5.922 47.0338 5.701C46.8388 5.597 46.6373 5.545 46.4293 5.545H46.1758V5.35H53.6443C54.0473 5.35 54.4893 5.311 54.9703 5.233C55.4513 5.155 55.7893 5.077 55.9843 4.999V8.4115H55.7893V8.1775C55.7893 7.5925 55.6138 7.1245 55.2628 6.7735C54.9248 6.4095 54.4633 6.2145 53.8783 6.1885H50.6023V11.863H53.1763C53.6573 11.85 54.0538 11.6875 54.3658 11.3755C54.6778 11.0505 54.8338 10.654 54.8338 10.186V10.0105H55.0288V14.515H54.8338V14.359C54.8338 13.709 54.5738 13.228 54.0538 12.916C53.7938 12.773 53.5078 12.695 53.1958 12.682H50.6023V18.1615H53.1568C54.1058 18.1615 54.8988 17.8885 55.5358 17.3425C56.1858 16.7965 56.6668 16.023 56.9788 15.022H57.1738L56.2768 19H46.1758V18.805H46.4293ZM63.7834 6.208H62.9449C62.9189 6.208 62.8994 6.208 62.8864 6.208V17.5765C62.8994 18.0575 63.1074 18.415 63.5104 18.649C63.7054 18.753 63.9134 18.805 64.1344 18.805H64.3879V19H58.4599V18.805H58.7134C59.1814 18.805 59.5389 18.6035 59.7859 18.2005C59.8899 18.0185 59.9484 17.817 59.9614 17.596V6.7735C59.9484 6.4355 59.8184 6.1495 59.5714 5.9155C59.3374 5.6685 59.0514 5.545 58.7134 5.545H58.4599V5.35H65.1484C66.4094 5.35 67.4754 5.623 68.3464 6.169C68.7884 6.442 69.1394 6.8255 69.3994 7.3195C69.6594 7.8005 69.7894 8.353 69.7894 8.977C69.7894 9.588 69.6789 10.1535 69.4579 10.6735C69.2499 11.1935 68.8924 11.6485 68.3854 12.0385C67.8914 12.4285 67.2934 12.6625 66.5914 12.7405C67.3454 12.9875 68.0084 13.5595 68.5804 14.4565C69.9844 16.7055 71.0244 18.0445 71.7004 18.4735C72.0384 18.6815 72.4609 18.792 72.9679 18.805V19H71.0569C69.9519 19 69.0289 18.8505 68.2879 18.5515C67.5469 18.2395 66.9424 17.713 66.4744 16.972C66.2404 16.595 65.9414 16.0295 65.5774 15.2755C65.2134 14.5085 64.9729 13.9625 64.8559 13.6375C64.5049 12.8575 64.0629 12.422 63.5299 12.331V12.136H64.1344C64.7194 12.136 65.2329 11.9605 65.6749 11.6095C66.1299 11.2585 66.4354 10.6865 66.5914 9.8935C66.6434 9.6205 66.6694 9.406 66.6694 9.25C66.6694 8.184 66.4549 7.417 66.0259 6.949C65.5969 6.468 65.0444 6.221 64.3684 6.208C64.2384 6.208 64.0434 6.208 63.7834 6.208ZM88.0627 5.545C87.7377 5.545 87.4582 5.662 87.2242 5.896C86.9902 6.117 86.8667 6.39 86.8537 6.715V16.777C86.8537 17.648 86.9122 18.3825 87.0292 18.9805L87.0877 19.273H86.9122L77.0647 9.8935V17.635C77.0647 17.96 77.1817 18.2395 77.4157 18.4735C77.6497 18.6945 77.9292 18.805 78.2542 18.805H78.6247V19H72.7162V18.805H73.0672C73.4052 18.805 73.6912 18.6945 73.9252 18.4735C74.1592 18.2395 74.2762 17.9535 74.2762 17.6155V7.495C74.2762 6.637 74.2177 5.922 74.1007 5.35L74.0617 5.0575H74.2372L84.0847 14.437V6.7345C84.0717 6.3965 83.9482 6.117 83.7142 5.896C83.4802 5.662 83.2007 5.545 82.8757 5.545H82.5247V5.35H88.4332V5.545H88.0627ZM103.28 18.805H103.456V19H97.235V18.805H97.4105C97.6965 18.805 97.9045 18.7205 98.0345 18.5515C98.1775 18.3695 98.249 18.2005 98.249 18.0445C98.249 17.8885 98.2165 17.7325 98.1515 17.5765L97.196 15.178H92.633L91.619 17.5765C91.554 17.7455 91.5215 17.908 91.5215 18.064C91.5215 18.207 91.5865 18.3695 91.7165 18.5515C91.8595 18.7205 92.0805 18.805 92.3795 18.805H92.5355V19H88.3625V18.805H88.538C88.837 18.805 89.136 18.714 89.435 18.532C89.734 18.35 89.981 18.077 90.176 17.713L94.6805 7.5145C95.2915 6.2275 95.6165 5.376 95.6555 4.96H95.831L101.623 17.674C101.818 18.051 102.065 18.337 102.364 18.532C102.663 18.714 102.968 18.805 103.28 18.805ZM92.9645 14.359H96.8645L94.973 9.562L92.9645 14.359ZM18.5245 45.495V52.0837C18.5245 52.5387 18.6908 52.9325 19.0233 53.265C19.3558 53.58 19.7495 53.7375 20.2045 53.7375H20.5195L20.5458 54H12.5658V53.7375H12.907C13.362 53.7375 13.747 53.58 14.062 53.265C14.3945 52.9325 14.5695 52.5387 14.587 52.0837V37.4625C14.552 37.025 14.3683 36.6575 14.0358 36.36C13.7208 36.045 13.3445 35.8875 12.907 35.8875H12.5658V35.625H22.6195C23.3895 35.625 24.0633 35.5637 24.6408 35.4412C25.2183 35.3187 25.5945 35.2225 25.7695 35.1525V39.5887H25.507V39.3262C25.507 38.2762 25.1133 37.5325 24.3258 37.095C23.9583 36.885 23.5208 36.7712 23.0133 36.7537H18.5245V44.3925H26.0845C26.732 44.375 27.2658 44.1562 27.6858 43.7362C28.1058 43.2987 28.3158 42.765 28.3158 42.135V41.8987H28.5783V47.9625H28.3158V47.7525C28.3158 47.105 28.1058 46.5712 27.6858 46.1512C27.2833 45.7312 26.767 45.5125 26.137 45.495H18.5245ZM43.1065 53.805H43.282V54H37.0615V53.805H37.237C37.523 53.805 37.731 53.7205 37.861 53.5515C38.004 53.3695 38.0755 53.2005 38.0755 53.0445C38.0755 52.8885 38.043 52.7325 37.978 52.5765L37.0225 50.178H32.4595L31.4455 52.5765C31.3805 52.7455 31.348 52.908 31.348 53.064C31.348 53.207 31.413 53.3695 31.543 53.5515C31.686 53.7205 31.907 53.805 32.206 53.805H32.362V54H28.189V53.805H28.3645C28.6635 53.805 28.9625 53.714 29.2615 53.532C29.5605 53.35 29.8075 53.077 30.0025 52.713L34.507 42.5145C35.118 41.2275 35.443 40.376 35.482 39.96H35.6575L41.449 52.674C41.644 53.051 41.891 53.337 42.19 53.532C42.489 53.714 42.7945 53.805 43.1065 53.805ZM32.791 49.359H36.691L34.7995 44.562L32.791 49.359ZM49.6745 54H43.493V53.805H43.7465C44.0845 53.805 44.3705 53.688 44.6045 53.454C44.8515 53.22 44.9815 52.934 44.9945 52.596V41.754C44.9815 41.416 44.8515 41.13 44.6045 40.896C44.3705 40.662 44.0845 40.545 43.7465 40.545H43.493V40.35H49.148C50.656 40.35 51.852 40.623 52.736 41.169C53.633 41.715 54.088 42.5535 54.101 43.6845C54.088 44.2565 53.9645 44.757 53.7305 45.186C53.3015 45.992 52.6255 46.4535 51.7025 46.5705C52.7035 46.6615 53.529 47.0385 54.179 47.7015C54.829 48.3515 55.154 49.1835 55.154 50.1975C55.154 51.4195 54.66 52.362 53.672 53.025C52.697 53.675 51.3645 54 49.6745 54ZM50.981 43.938C50.968 42.105 50.136 41.1885 48.485 41.1885H47.9195V53.103H48.8165C48.8295 53.103 48.8425 53.103 48.8555 53.103C49.7525 53.103 50.4675 52.843 51.0005 52.323C51.5335 51.803 51.8 51.0165 51.8 49.9635C51.8 49.2225 51.6505 48.6115 51.3515 48.1305C50.7925 47.2335 49.8695 46.785 48.5825 46.785V46.6095C49.2585 46.6095 49.824 46.395 50.279 45.966C50.734 45.524 50.968 44.848 50.981 43.938ZM71.1234 40.545H70.7919C70.5189 40.545 70.2784 40.636 70.0704 40.818C69.8754 40.987 69.7779 41.2015 69.7779 41.4615V49.0665C69.7779 50.6655 69.2774 51.933 68.2764 52.869C67.2754 53.805 65.9039 54.273 64.1619 54.273C62.1079 54.273 60.5349 53.818 59.4429 52.908C58.3509 51.985 57.8049 50.711 57.8049 49.086V41.52C57.8049 41.234 57.7009 41 57.4929 40.818C57.2979 40.636 57.0574 40.545 56.7714 40.545H56.4594V40.35H62.0754V40.545H61.7634C61.4774 40.545 61.2369 40.636 61.0419 40.818C60.8469 40.987 60.7429 41.208 60.7299 41.481V48.93C60.7299 50.308 61.0679 51.4 61.7439 52.206C62.4199 53.012 63.3494 53.415 64.5324 53.415C65.7154 53.415 66.6514 53.038 67.3404 52.284C68.0294 51.517 68.3804 50.4835 68.3934 49.1835V41.481C68.3934 41.208 68.2894 40.987 68.0814 40.818C67.8864 40.636 67.6459 40.545 67.3599 40.545H67.0479V40.35H71.1234V40.545ZM72.6346 53.805C72.9726 53.805 73.2586 53.688 73.4926 53.454C73.7396 53.207 73.8696 52.9145 73.8826 52.5765V41.7735C73.8696 41.4355 73.7396 41.1495 73.4926 40.9155C73.2586 40.6685 72.9726 40.545 72.6346 40.545H72.3811V40.35H78.3091L78.2896 40.545H78.0556C77.7176 40.545 77.4251 40.6685 77.1781 40.9155C76.9311 41.1495 76.8076 41.4355 76.8076 41.7735V53.1615H79.3621C80.3111 53.1615 81.1041 52.8885 81.7411 52.3425C82.3911 51.7965 82.8721 51.023 83.1841 50.022H83.3791L82.4821 54H72.3811V53.805H72.6346ZM97.9692 53.805H98.1447V54H91.9242V53.805H92.0997C92.3857 53.805 92.5937 53.7205 92.7237 53.5515C92.8667 53.3695 92.9382 53.2005 92.9382 53.0445C92.9382 52.8885 92.9057 52.7325 92.8407 52.5765L91.8852 50.178H87.3222L86.3082 52.5765C86.2432 52.7455 86.2107 52.908 86.2107 53.064C86.2107 53.207 86.2757 53.3695 86.4057 53.5515C86.5487 53.7205 86.7697 53.805 87.0687 53.805H87.2247V54H83.0517V53.805H83.2272C83.5262 53.805 83.8252 53.714 84.1242 53.532C84.4232 53.35 84.6702 53.077 84.8652 52.713L89.3697 42.5145C89.9807 41.2275 90.3057 40.376 90.3447 39.96H90.5202L96.3117 52.674C96.5067 53.051 96.7537 53.337 97.0527 53.532C97.3517 53.714 97.6572 53.805 97.9692 53.805ZM87.6537 49.359H91.5537L89.6622 44.562L87.6537 49.359Z" fill="#E4E4E4"/>
</svg>
