<svg xmlns="http://www.w3.org/2000/svg" width="267.776" height="28.669" viewBox="0 0 267.776 28.669">
  <g id="noun-frame-346217" transform="translate(-103.513 -253.382)">
    <path id="Tracé_13" data-name="Tracé 13" d="M370.584,266.042h-.61c-4.571.914-8.839-2.439-13.106-3.049-2.743-.3-6.706.3-7.01,3.657,0,0-.3.3,0,.3h-5.792a29.179,29.179,0,0,0,4.878-3.657c1.525-1.218,4.571-3.353,3.353-5.792-1.218-2.135-3.353-1.218-4.878,0a36.968,36.968,0,0,0-4.878,4.878,13.041,13.041,0,0,0-1.829-5.182c-2.439-3.657-9.145-5.792-11.888-1.218-2.135,3.657.914,8.535,5.182,7.621,1.525-.3,3.353-1.829,2.135-3.353a1.921,1.921,0,0,0-3.353.61,1.121,1.121,0,0,0,.3.914h-.914c-1.829-.3-2.439-2.135-2.135-3.963.914-2.439,3.963-3.353,6.4-2.743,3.353,1.218,5.486,6.1,3.963,9.145-.3.61-.914,1.218-1.218,1.829a1.062,1.062,0,0,1-.61.3c-23.472,0-63.708-.3-78.339-.3H136.788a6.669,6.669,0,0,0-1.218-1.525c-1.525-3.353.914-8.231,3.963-9.145,2.439-.914,5.486,0,6.1,2.743a2.815,2.815,0,0,1-2.135,3.963h-.914c.3-.3.61-.61.3-.914-.61-1.218-2.439-1.829-3.353-.61-1.218,1.525.61,3.049,1.829,3.353,4.267.914,7.316-3.963,5.182-7.621-2.743-4.571-9.145-2.743-11.888,1.218a13.042,13.042,0,0,0-1.829,5.182c-1.525-1.829-3.353-3.353-4.878-4.878-1.525-1.218-3.657-2.135-4.878,0s1.829,4.571,3.353,5.792a51.886,51.886,0,0,0,4.267,3.353H125.2c-.3-2.743-3.963-3.963-6.706-3.963-2.135,0-4.571.914-6.706,1.525-2.439.914-4.571,2.135-7.316,1.525h-.61c-.61,0-.3.914,0,1.218,3.963,1.829,8.231,4.571,12.8,5.182,3.353.61,7.621-.914,8.535-4.267h6.1a18.048,18.048,0,0,0-5.486,3.963c-1.525,1.218-4.571,3.353-3.353,5.792,1.218,2.135,3.353,1.218,4.878,0a36.968,36.968,0,0,0,4.878-4.878,9.635,9.635,0,0,0,1.829,5.182c2.439,3.657,9.145,5.792,11.888,1.218,2.135-3.657-.914-8.535-5.182-7.621-1.525.3-3.353,1.829-2.135,3.353a1.921,1.921,0,0,0,3.353-.61,1.121,1.121,0,0,0-.3-.914h.914c1.829.3,2.439,2.439,2.135,3.963-.914,2.439-3.963,3.353-6.4,2.439-3.353-1.218-5.486-6.1-3.963-9.145.3-.61.914-1.218,1.218-1.829.3,0,.3-.3.61-.3s.61,0,.61-.3c23.776.3,63.4,0,78.034.3,25.3,0,87.789.3,113.089.3h10.974a6.668,6.668,0,0,0,1.218,1.525c1.525,3.353-.914,8.231-3.963,9.145a4.825,4.825,0,0,1-6.4-2.743,2.815,2.815,0,0,1,2.135-3.963h.914c-.3.3-.61.61-.3.914.61,1.218,2.439,1.829,3.353.61,1.218-1.525-.61-3.049-2.135-3.353-4.267-.914-7.316,3.963-5.182,7.621,2.743,4.571,9.145,2.439,11.888-1.218a13.041,13.041,0,0,0,1.829-5.182c1.525,1.829,3.353,3.353,4.878,4.878,1.525,1.218,3.657,2.135,4.878,0s-1.829-4.571-3.353-5.792a51.888,51.888,0,0,0-4.267-3.353h5.182c1.218,2.743,4.878,3.963,7.621,3.963,2.135,0,3.963-.914,6.1-1.829,1.829-.914,3.963-1.829,5.792-2.743.3,0,.61-.3.914-.61.3,0,.3-.3.61-.3,1.22.3.612-.306,0-.61Zm-242.943-4.267a14.133,14.133,0,0,1-2.135-2.135c-.61-2.135,2.135.3,2.439.914.914.914,1.829,1.525,2.743,2.439a27.372,27.372,0,0,1,2.743,3.049v.3a26.885,26.885,0,0,1-3.049-1.829q-1.368-1.371-2.741-2.743Zm-17.984,6.1c.61-.3,1.218-.3,1.829-.61,3.049-1.218,11.278-4.878,12.8,0-.61,0-.3.61,0,.914-3.657,5.488-9.449,2.135-14.631-.3Zm23.166,2.135-3.049,3.049c-.914.914-1.829,1.525-2.743,2.439-.3.3-3.353,2.743-2.743.914a14.033,14.033,0,0,1,2.135-2.135,11.933,11.933,0,0,1,3.049-2.439,19.4,19.4,0,0,1,3.351-1.829h0Zm208.8-4.27a27.377,27.377,0,0,0,2.743-3.049c.914-.914,1.829-1.525,2.743-2.439.3-.3,3.049-2.743,2.439-.914a14.033,14.033,0,0,1-2.135,2.135,11.933,11.933,0,0,1-3.049,2.439,4.428,4.428,0,0,1-2.741,1.829Zm6.706,8.231a14.133,14.133,0,0,1,2.135,2.135c.61,2.135-2.135-.3-2.439-.914-.914-.914-1.829-1.525-2.743-2.439a27.372,27.372,0,0,1-2.743-3.049v-.3a26.891,26.891,0,0,1,3.049,1.829q1.368,1.371,2.741,2.743Zm3.047-6.1c0-.3,0-.3-.3-.61,1.525-4.878,8.839-2.439,12.192-.914a21.056,21.056,0,0,0,2.439.914c-5.182,2.439-11.278,6.1-14.327.61Z" transform="translate(0)" fill="#e2e2e2"/>
  </g>
</svg>
